<?xml version="1.0" encoding="utf-8"?>
<!-- Generator: Adobe Illustrator 15.0.0, SVG Export Plug-In . SVG Version: 6.00 Build 0)  -->
<!DOCTYPE svg PUBLIC "-//W3C//DTD SVG 1.1//EN" "http://www.w3.org/Graphics/SVG/1.1/DTD/svg11.dtd">
<svg version="1.1" id="Layer_1" xmlns="http://www.w3.org/2000/svg" xmlns:xlink="http://www.w3.org/1999/xlink" x="0px" y="0px"
	 width="704px" height="851.333px" viewBox="-45.5 -20.167 704 851.333" enable-background="new -45.5 -20.167 704 851.333"
	 xml:space="preserve">
<rect x="239.487" y="731.688" fill="#FFFFFF" width="25.333" height="25.333"/>
<rect x="350.96" y="727.898" fill="#FFFFFF" width="25.333" height="25.333"/>
<rect x="181.56" y="709.017" fill="#FFDBBD" width="93.704" height="18.667"/>
<rect x="338.167" y="704.976" fill="#FFDBBD" width="93.704" height="18.667"/>
<g id="leg_1_">
	<polygon fill="#3F4B54" points="433.006,695.515 433.006,604.064 336.264,604.064 336.264,695.515 	"/>
	<rect x="332.916" y="689.352" fill="#53626B" width="103.441" height="21.815"/>
</g>
<g id="leg">
	<polygon fill="#3F4B54" points="277.645,695.515 277.645,604.064 180.902,604.064 180.902,695.515 	"/>
	<rect x="177.554" y="689.352" fill="#53626B" width="103.442" height="21.815"/>
</g>
<title>HTML5 Logo Badge</title>
<path fill="#E34F26" d="M84.16,577.844L35.069,28h540l-49.09,549.844L304.47,640"/>
<path fill="#EF652A" d="M306.235,592.188l178.101-49.008l41.836-470.953H306.235"/>
<path fill="#EBEBEB" d="M306.235,276.625h-89.648l-5.977-69.328h95.625v-66.938h-1.195H136.5l1.195,17.93l16.734,186.469h151.805
	V276.625z M306.235,452.336h-1.195l-75.305-20.32l-4.781-53.789h-35.859h-31.078l8.367,106.383l138.656,38.25h1.195V452.336z"/>
<path fill="#FFFFFF" d="M305.04,276.625v68.133h83.671l-8.367,87.258l-75.304,20.32v70.523l138.656-38.25l1.195-11.953
	l15.539-178.102l2.391-17.93h-19.125H305.04z M305.04,140.359v41.836v25.102l0,0h163.757l0,0l0,0l1.195-14.344l3.586-34.664
	l1.195-17.93H305.04z"/>
<path opacity="0.3" fill="#FFFFFF" enable-background="new    " d="M1001.795,50.45c-13.605-10.418-25.115-62.137-6.986-74.084
	c18.114-11.951,53.058-16.715,78.395-8.926C1098.558-24.774,1032.068,73.652,1001.795,50.45z"/>
<path fill="#111111" d="M579.885,110.167c-2.783-4.634-142.287-13.906-172.986-10.202c-46.439,4.723-63.742,24.156-102.27,24.156
	c-38.539,0-46.398-19.442-101.456-22.588c-30.856-1.754-170.191,5.564-172.986,10.204c-2.781,4.638,0.929,37.12,3.721,39.287
	c2.791,2.165,17.668,0.773,17.668,12.059c0.006,29.688,11.164,65.862,17.66,76.99c6.52,11.135,11.473,23.497,45.574,33.703
	c31.114,9.312,66.042,7.113,89.285-4.018c18.398-8.803,46.507-31.538,60.461-65.859c11.104-27.327,14.105-54.534,40.05-54.534
	c25.956,0,29.795,25.648,40.895,52.964c13.949,34.336,42.066,57.06,60.459,65.865c23.248,11.137,58.16,13.335,89.283,4.023
	c34.094-10.203,39.066-22.575,45.574-33.703c6.516-11.122,17.67-47.307,17.67-76.99c0-11.285,14.873-9.898,17.66-12.059
	C578.957,147.29,582.684,114.809,579.885,110.167z M249.685,189.982c-4.651,20.41-23.249,56.584-56.73,69.574
	c-33.471,12.989-71.609,6.491-94.865-6.489c-23.245-12.996-24.179-46.38-25.106-77.932c-0.936-31.527,4.646-38.958,17.667-47.297
	c7.821-5.015,50.222-10.204,75.332-10.204c25.113,0,60.869,3.061,78.124,14.832C261.773,144.53,254.333,169.574,249.685,189.982z
	 M537.104,173.571c-0.934,31.539-1.869,64.933-25.111,77.919c-23.252,12.996-61.387,19.479-94.865,6.505
	c-33.475-12.999-52.072-49.164-56.729-69.571c-4.646-20.408-12.1-45.455,5.584-57.513c17.254-11.774,52.996-14.832,78.121-14.832
	c25.096,0,67.496,5.186,75.332,10.197C532.447,134.615,538.025,142.033,537.104,173.571z"/>
<g id="shoes">
	<path fill="#231F20" d="M97.457,771.766h182.136v-53.524c0,0-8.723,0-95.438,0C97.457,718.236,97.457,730.625,97.457,771.766z"/>
	<path fill="#FFFFFF" d="M96.816,760.356c-1.022,5.134,0.101,11.409,0.101,11.409h182.676v-11.409H96.816z"/>
	<path fill="#FFFFFF" d="M261.83,741.55c0-5.443-4.409-9.839-9.832-9.839c-5.416,0-9.84,4.396-9.84,9.839
		c0,5.426,4.425,9.835,9.84,9.835C257.423,751.386,261.83,746.979,261.83,741.55z"/>
	<path fill="#FFFFFF" d="M187.79,717.358v11.958c0,1.423,1.153,2.576,2.574,2.576c1.423,0,2.573-1.156,2.573-2.576v-11.958
		C191.251,717.358,189.541,717.358,187.79,717.358z"/>
	<path fill="#FFFFFF" d="M181.176,731.893c1.422,0,2.574-1.156,2.574-2.576v-11.955c-1.754,0-3.465,0.005-5.146,0.018v11.938
		C178.604,730.739,179.756,731.893,181.176,731.893z"/>
	<path fill="#FFFFFF" d="M162.792,731.893c1.421,0,2.574-1.156,2.574-2.576v-11.724c-1.768,0.049-3.471,0.105-5.146,0.175v11.553
		C160.218,730.739,161.371,731.893,162.792,731.893z"/>
	<path fill="#FFFFFF" d="M171.978,731.893c1.421,0,2.574-1.156,2.574-2.576v-11.902c-1.752,0.024-3.473,0.049-5.146,0.084v11.818
		C169.404,730.739,170.556,731.893,171.978,731.893z"/>
	<path fill="#FFFFFF" d="M153.6,731.893c1.421,0,2.571-1.156,2.571-2.576V717.94c-1.771,0.089-3.479,0.185-5.145,0.295v11.086
		C151.025,730.739,152.178,731.893,153.6,731.893z"/>
	<rect x="96.916" y="768.893" fill="#231F20" width="182.674" height="8.571"/>
</g>
<g id="shoes_1_">
	<path fill="#231F20" d="M431.466,718.007c-86.715,0-95.438,0-95.438,0v53.524h182.136
		C518.164,730.391,518.164,718.002,431.466,718.007z"/>
	<path fill="#FFFFFF" d="M336.028,760.122v11.409h182.676c0,0,1.123-6.275,0.102-11.409H336.028z"/>
	<path fill="#FFFFFF" d="M363.623,751.15c5.415,0,9.84-4.409,9.84-9.835c0-5.443-4.424-9.839-9.84-9.839
		c-5.423,0-9.832,4.396-9.832,9.839C353.791,746.744,358.198,751.151,363.623,751.15z"/>
	<path fill="#FFFFFF" d="M422.685,717.124v11.958c0,1.42,1.149,2.576,2.572,2.576c1.422,0,2.575-1.153,2.575-2.576v-11.958
		C426.081,717.124,424.37,717.124,422.685,717.124z"/>
	<path fill="#FFFFFF" d="M437.018,729.082v-11.938c-1.682-0.013-3.393-0.018-5.146-0.018v11.955c0,1.42,1.151,2.576,2.573,2.576
		C435.864,731.658,437.018,730.505,437.018,729.082z"/>
	<path fill="#FFFFFF" d="M455.401,729.086v-11.553c-1.676-0.069-3.378-0.126-5.146-0.175v11.724c0,1.42,1.152,2.576,2.574,2.576
		C454.25,731.658,455.403,730.505,455.401,729.086z"/>
	<path fill="#FFFFFF" d="M446.216,729.082v-11.818c-1.674-0.035-3.395-0.06-5.146-0.084v11.902c0,1.42,1.152,2.576,2.574,2.576
		S446.217,730.505,446.216,729.082z"/>
	<path fill="#FFFFFF" d="M464.596,729.087v-11.086c-1.667-0.11-3.374-0.206-5.146-0.295v11.376c0,1.42,1.15,2.576,2.571,2.576
		C463.443,731.658,464.596,730.505,464.596,729.087z"/>
	<rect x="336.032" y="768.658" fill="#231F20" width="182.674" height="8.571"/>
</g>
<rect x="-20.211" y="258.645" fill="#FFDBBD" width="61" height="195"/>
<path fill="#EF652A" d="M10.275,224.271l25.022,2.152l5.546,19.033h-61l5.547-19.033"/>
<path fill="#E34F26" d="M9.012,210.344c-19.199,0-34.765,13.82-34.765,30.869v36.943h69.536v-36.941
	C43.781,224.164,28.214,210.344,9.012,210.344z"/>
<rect x="-30.167" y="274.393" fill="#EF652A" width="78.359" height="27.879"/>
<rect x="574.096" y="245.812" fill="#FFDBBD" width="61" height="195"/>
<path fill="#EF652A" d="M604.582,224.271l25.023,2.152l5.545,19.033h-60.999l5.547-19.033"/>
<path fill="#E34F26" d="M603.319,210.344c-19.199,0-34.765,13.82-34.765,30.869v36.943h69.536v-36.941
	C638.088,224.164,622.521,210.344,603.319,210.344z"/>
<rect x="564.141" y="274.393" fill="#EF652A" width="78.359" height="27.879"/>
<path fill="#FFDBBD" d="M579.366,502.498l-5.546-62.113h61l-5.545,62.113l-25.021,7.021"/>
<path fill="#FFDBBD" d="M-14.61,515.758l-5.546-62.113h61l-5.545,62.113l-25.021,7.021"/>
</svg>
