<?xml version="1.0" encoding="utf-8"?>
<!-- Generator: Adobe Illustrator 15.0.0, SVG Export Plug-In . SVG Version: 6.00 Build 0)  -->
<!DOCTYPE svg PUBLIC "-//W3C//DTD SVG 1.1//EN" "http://www.w3.org/Graphics/SVG/1.1/DTD/svg11.dtd">
<svg version="1.1" id="Layer_1" xmlns="http://www.w3.org/2000/svg" xmlns:xlink="http://www.w3.org/1999/xlink" x="0px" y="0px"
	 width="704px" height="1050px" viewBox="-45.5 -119.5 704 1050" enable-background="new -45.5 -119.5 704 1050"
	 xml:space="preserve">
<rect x="239.82" y="886.131" fill="#FFFFFF" width="25.333" height="25.333"/>
<rect x="351.293" y="882.341" fill="#FFFFFF" width="25.333" height="25.333"/>
<rect x="181.893" y="863.459" fill="#FFDBBD" width="93.704" height="18.667"/>
<rect x="338.5" y="859.418" fill="#FFDBBD" width="93.704" height="18.667"/>
<g id="leg_1_">
	<polygon fill="#3F4B54" points="433.339,849.957 433.339,758.507 336.597,758.507 336.597,849.957 	"/>
	<rect x="333.249" y="843.794" fill="#53626B" width="103.441" height="21.815"/>
</g>
<g id="leg">
	<polygon fill="#3F4B54" points="277.978,849.957 277.978,758.507 181.235,758.507 181.235,849.957 	"/>
	<rect x="177.887" y="843.794" fill="#53626B" width="103.442" height="21.815"/>
</g>
<title>HTML5 Logo Badge</title>
<path fill="#E34F26" d="M84.493,732.286L35.402,182.442h540l-49.09,549.844l-221.509,62.156"/>
<path fill="#EF652A" d="M306.568,746.63l178.101-49.008l41.836-470.953H306.568"/>
<path fill="#EBEBEB" d="M306.568,431.067h-89.649l-5.977-69.328h95.625v-66.938h-1.196H136.833l1.195,17.93L154.763,499.2h151.805
	V431.067z M306.568,606.778h-1.196l-75.305-20.32l-4.781-53.789h-35.859h-31.078l8.367,106.383l138.656,38.25h1.196V606.778z"/>
<path fill="#FFFFFF" d="M305.373,431.067V499.2h83.671l-8.367,87.258l-75.304,20.32v70.523l138.656-38.25l1.195-11.953
	l15.539-178.102l2.391-17.93h-19.125H305.373z M305.373,294.802v41.836v25.102l0,0H469.13l0,0l0,0l1.195-14.344l3.586-34.664
	l1.195-17.93H305.373z"/>
<path opacity="0.3" fill="#FFFFFF" enable-background="new    " d="M1001.795,50.45c-13.605-10.418-25.115-62.137-6.986-74.084
	c18.114-11.951,53.058-16.715,78.395-8.926C1098.558-24.774,1032.068,73.652,1001.795,50.45z"/>
<path fill="#111111" d="M580.218,264.609c-2.783-4.634-142.287-13.906-172.986-10.202c-46.439,4.723-63.742,24.156-102.27,24.156
	c-38.539,0-46.398-19.442-101.456-22.588c-30.856-1.754-170.191,5.564-172.986,10.204c-2.781,4.638,0.929,37.12,3.721,39.287
	c2.791,2.165,17.668,0.773,17.668,12.059c0.006,29.688,11.164,65.862,17.66,76.99c6.52,11.135,11.473,23.497,45.574,33.703
	c31.114,9.312,66.042,7.113,89.285-4.018c18.398-8.803,46.507-31.538,60.461-65.859c11.104-27.327,14.105-54.534,40.05-54.534
	c25.956,0,29.795,25.648,40.895,52.964c13.949,34.336,42.066,57.06,60.459,65.865c23.248,11.137,58.16,13.335,89.283,4.023
	c34.094-10.203,39.066-22.575,45.574-33.703c6.516-11.122,17.67-47.307,17.67-76.99c0-11.285,14.873-9.898,17.66-12.059
	C579.29,301.732,583.017,269.251,580.218,264.609z M250.018,344.425c-4.651,20.41-23.249,56.584-56.73,69.574
	c-33.471,12.989-71.609,6.491-94.865-6.489c-23.245-12.996-24.179-46.38-25.106-77.932c-0.936-31.527,4.646-38.958,17.667-47.297
	c7.821-5.015,50.222-10.204,75.332-10.204c25.113,0,60.869,3.061,78.124,14.832C262.106,298.973,254.667,324.017,250.018,344.425z
	 M537.437,328.014c-0.934,31.539-1.869,64.933-25.111,77.919c-23.252,12.996-61.387,19.479-94.865,6.505
	c-33.475-12.999-52.072-49.164-56.729-69.571c-4.646-20.408-12.1-45.455,5.584-57.513c17.254-11.774,52.996-14.832,78.121-14.832
	c25.096,0,67.496,5.186,75.332,10.197C532.78,289.058,538.358,296.476,537.437,328.014z"/>
<g id="shoes">
	<path fill="#231F20" d="M97.79,926.208h182.136v-53.524c0,0-8.723,0-95.438,0C97.79,872.679,97.79,885.067,97.79,926.208z"/>
	<path fill="#FFFFFF" d="M97.149,914.799c-1.022,5.134,0.101,11.409,0.101,11.409h182.676v-11.409H97.149z"/>
	<path fill="#FFFFFF" d="M262.163,895.992c0-5.443-4.409-9.839-9.832-9.839c-5.416,0-9.84,4.396-9.84,9.839
		c0,5.426,4.425,9.835,9.84,9.835C257.756,905.828,262.163,901.421,262.163,895.992z"/>
	<path fill="#FFFFFF" d="M188.123,871.801v11.958c0,1.423,1.153,2.576,2.574,2.576c1.423,0,2.573-1.156,2.573-2.576v-11.958
		C191.584,871.801,189.874,871.801,188.123,871.801z"/>
	<path fill="#FFFFFF" d="M181.509,886.335c1.422,0,2.574-1.156,2.574-2.576v-11.955c-1.754,0-3.465,0.005-5.146,0.018v11.938
		C178.937,885.182,180.089,886.335,181.509,886.335z"/>
	<path fill="#FFFFFF" d="M163.125,886.335c1.421,0,2.574-1.156,2.574-2.576v-11.724c-1.768,0.049-3.471,0.105-5.146,0.175v11.553
		C160.551,885.182,161.704,886.335,163.125,886.335z"/>
	<path fill="#FFFFFF" d="M172.311,886.335c1.421,0,2.574-1.156,2.574-2.576v-11.902c-1.752,0.024-3.473,0.049-5.146,0.084v11.818
		C169.737,885.182,170.889,886.335,172.311,886.335z"/>
	<path fill="#FFFFFF" d="M153.933,886.335c1.421,0,2.571-1.156,2.571-2.576v-11.376c-1.771,0.089-3.479,0.185-5.145,0.295v11.086
		C151.358,885.182,152.511,886.335,153.933,886.335z"/>
	<rect x="97.249" y="923.335" fill="#231F20" width="182.674" height="8.571"/>
</g>
<g id="shoes_1_">
	<path fill="#231F20" d="M431.799,872.449c-86.715,0-95.438,0-95.438,0v53.524h182.136
		C518.497,884.833,518.497,872.444,431.799,872.449z"/>
	<path fill="#FFFFFF" d="M336.361,914.564v11.409h182.676c0,0,1.123-6.275,0.102-11.409H336.361z"/>
	<path fill="#FFFFFF" d="M363.956,905.593c5.415,0,9.84-4.409,9.84-9.835c0-5.443-4.424-9.839-9.84-9.839
		c-5.423,0-9.832,4.396-9.832,9.839C354.124,901.187,358.531,905.594,363.956,905.593z"/>
	<path fill="#FFFFFF" d="M423.018,871.566v11.958c0,1.42,1.149,2.576,2.572,2.576c1.422,0,2.575-1.153,2.575-2.576v-11.958
		C426.414,871.566,424.703,871.566,423.018,871.566z"/>
	<path fill="#FFFFFF" d="M437.351,883.524v-11.938c-1.682-0.013-3.393-0.018-5.146-0.018v11.955c0,1.42,1.151,2.576,2.573,2.576
		C436.197,886.101,437.351,884.947,437.351,883.524z"/>
	<path fill="#FFFFFF" d="M455.734,883.528v-11.553c-1.676-0.069-3.378-0.126-5.146-0.175v11.724c0,1.42,1.152,2.576,2.574,2.576
		C454.583,886.101,455.736,884.947,455.734,883.528z"/>
	<path fill="#FFFFFF" d="M446.549,883.524v-11.818c-1.674-0.035-3.395-0.06-5.146-0.084v11.902c0,1.42,1.152,2.576,2.574,2.576
		S446.55,884.947,446.549,883.524z"/>
	<path fill="#FFFFFF" d="M464.929,883.529v-11.086c-1.667-0.11-3.374-0.206-5.146-0.295v11.376c0,1.42,1.15,2.576,2.571,2.576
		C463.776,886.101,464.929,884.947,464.929,883.529z"/>
	<rect x="336.365" y="923.101" fill="#231F20" width="182.674" height="8.571"/>
</g>
<rect x="-19.878" y="413.087" fill="#FFDBBD" width="61" height="195"/>
<path fill="#EF652A" d="M10.608,378.714l25.022,2.152l5.546,19.033h-61l5.547-19.033"/>
<path fill="#E34F26" d="M9.345,364.786c-19.199,0-34.765,13.82-34.765,30.869v36.943h69.536v-36.941
	C44.114,378.606,28.547,364.786,9.345,364.786z"/>
<rect x="-29.833" y="428.835" fill="#EF652A" width="78.359" height="27.879"/>
<rect x="574.429" y="400.255" fill="#FFDBBD" width="61" height="195"/>
<path fill="#EF652A" d="M604.915,378.714l25.023,2.152l5.545,19.033h-60.999l5.547-19.033"/>
<path fill="#E34F26" d="M603.652,364.786c-19.199,0-34.765,13.82-34.765,30.869v36.943h69.536v-36.941
	C638.421,378.606,622.854,364.786,603.652,364.786z"/>
<rect x="564.474" y="428.835" fill="#EF652A" width="78.359" height="27.879"/>
<path fill="#FFDBBD" d="M579.699,656.94l-5.546-62.113h61l-5.545,62.113l-25.021,7.021"/>
<path fill="#FFDBBD" d="M-14.277,670.2l-5.546-62.113h61L35.632,670.2l-25.021,7.021"/>
<path d="M297.595-120.906l47.82,4.108c9.822,2.458,19.943,3.638,29.645,6.658c19.053,4.889,37.098,13.114,54.027,23.029
	c9.532,5.662,18.692,12.024,26.8,19.613c14.056,11.877,27.237,24.758,39.675,38.294c5.715,6.8,11.465,13.567,17.141,20.385
	c9.549,12.878,19.918,25.607,25.225,40.969c2.223,5.961,3.23,12.265,4.145,18.524c11.68,2.779,21.516,11.032,27.296,21.421
	c2.564,4.799,3.671,10.183,5.76,15.182c7.863,19.739,15.677,39.507,23.552,59.246c3.637,8.327,4.526,17.436,4.76,26.42
	c0.377,5.344-2.549,10.611-7.058,13.395c-11.481,6.114-23.964,10.248-36.693,12.806c-21.546,3.026-42.1,11.061-63.767,13.273
	c-53.896,11.271-108.364,19.984-163.165,25.306c-69.78,7.582-139.782,13.233-209.917,16.16c-7.251,0.451-14.444-1.105-21.699-0.756
	c-10.078,0.575-20.005-1.688-30.033-2.092c-14.793-0.787-29.374-3.495-43.86-6.4c-5.906-1.744-11.724-3.846-17.805-4.895
	c-4.88-1.176-10.467-1.164-14.411-4.695c-4.197-4.598-4.91-11.082-5.859-16.957l2.958-34.423c1.79-5.904,2.342-12.071,3.661-18.083
	c3.961-21.848,11.299-42.889,19.356-63.515c0.658-1.513,1.373-3.306,3.122-3.819c4.993-1.745,10.363-1.754,15.592-1.579
	c-2.616-4.335-5.106-8.922-5.58-14.058c-2.222-14.113,3.694-27.674,9.319-40.255c8.263-20.081,19.594-38.821,33.258-55.678
	C80.87-27.896,93.733-40.23,106.937-51.872c5.317-5.783,12.276-9.615,18.083-14.853c45.006-33.98,101.083-52.38,157.332-53.58
	C287.441-120.509,292.539-120.276,297.595-120.906z"/>
<path fill="#417DA5" d="M282.466-103.671c7.603,0.274,15.233-0.34,22.817,0.54c10.633,1.224,21.417,1.258,31.897,3.601
	c16.143,2.246,32.338,5.068,47.706,10.67c7.267,2.984,14.011,7.078,20.902,10.796c11.269,6.351,23.064,11.794,33.837,19.016
	c16.308,10.984,31.408,23.776,44.912,38.08c4.736,5.502,9.342,11.105,14.062,16.629c7.486,8.933,11.647,19.951,16.402,30.434
	c3.259,7.399,6.81,14.666,9.582,22.266c-8.948-0.22-17.72,1.673-26.598,2.271c-13.652,0.339-27.232,1.839-40.874,2.269
	c0.969-14.594-5.042-28.835-13.477-40.473c-6.704-9.506-17.147-15.097-25.611-22.762c-8.834-7.778-18.228-14.904-27.417-22.267
	c-6.94-5.072-14.611-9.051-22.271-12.893c-13.589-6.159-28.645-7.75-42.631-12.742c-11.661-4.3-24.231-3.913-36.422-5.247
	c-7.667-0.729-15.602-2.178-23.145,0.197c-7.69,2.362-15.478,4.393-23.354,5.995c-24.033,5.079-47.518,12.985-69.408,24.179
	c-11.483,5.734-22.343,12.599-33.149,19.513c-7.206,4.715-14.579,9.509-20.113,16.223c-9.218,11.068-15.05,24.717-18.128,38.694
	c-1.827,9.668-3.083,19.748-0.965,29.466c1.747,8.451,8.212,14.629,12.982,21.462c-4.208,1.262-8.588,1.481-12.939,1.761
	c-14.398,1.545-28.898,1.479-43.342,2.228c-5.59,0.3-11.191,0.598-16.787,0.163c2.135-9.389,3.121-19.012,5.662-28.319
	c6.006-22.46,15.55-44.126,29.119-63.076c11.603-19.244,26.686-36.231,43.445-51.129c10.664-8.722,22.116-16.485,33.953-23.528
	c17.37-9.624,35.938-16.924,55.028-22.312C232.4-98.458,257.281-103.293,282.466-103.671z"/>
<path fill="#488BB7" d="M266.139-63.286c7.543-2.375,15.478-0.927,23.145-0.197c12.191,1.334,24.761,0.947,36.422,5.247
	c13.986,4.992,29.042,6.583,42.631,12.742c7.659,3.842,15.33,7.82,22.271,12.893c9.189,7.362,18.583,14.488,27.417,22.267
	c8.464,7.665,18.907,13.256,25.611,22.762c8.435,11.638,14.445,25.879,13.477,40.473c-2.271,2.188-6.058,1.77-9.035,2.338
	c-32.562,1.849-65.111,3.622-97.663,5.507c-56.683,5.181-113.172,13.08-168.852,24.976c-1.451,0.106-3.107,0.729-4.457-0.085
	c-0.527-1.19-1.375-1.722-2.567-1.571c-6.086,0.474-12.019,1.979-18.013,3.112c-10.582,2.032-21.309,3.216-31.989,4.669
	c-3.49,0.398-7.03,0.952-10.532,0.4c-4.771-6.833-11.235-13.011-12.982-21.462c-2.119-9.718-0.862-19.798,0.965-29.466
	c3.078-13.978,8.91-27.626,18.128-38.694c5.534-6.714,12.907-11.508,20.113-16.223c10.806-6.914,21.666-13.778,33.149-19.513
	c21.89-11.193,45.375-19.1,69.408-24.179C250.661-58.894,258.449-60.924,266.139-63.286z"/>
<path fill="#417DA5" d="M484.515,62.308c14.019-1.909,28.574-2.513,42.348,1.2c4.203,0.934,7.158,4.118,9.5,7.525
	c0.926-0.526,1.861-1.042,2.812-1.566c9.826,7.793,16.612,18.885,20.77,30.6c5.258,12.668,9.217,25.819,12.413,39.146
	c2.935,12.079,10.348,22.275,14.907,33.704c-9.713,4.729-20.393,6.663-30.509,10.246c-11.044,3.792-22.301,6.899-33.43,10.384
	c-13.085,4.226-26.597,6.827-39.907,10.208c-10.832,2.812-21.887,4.644-32.709,7.48c-20.908,5.463-42.301,8.604-63.58,12.157
	c-43.186,6.432-86.548,11.829-130.146,14.515c-50.837,4.06-101.877,6.198-152.878,5.103c-6.211,0.338-12.383-0.436-18.58-0.819
	c-9.133-0.167-18.279,0.217-27.408-0.123c-12.526-1.053-25.038-2.268-37.567-3.157c-3.364-0.29-7.42-0.501-9.264-3.844
	c-4.557-7.593-8.433-15.894-9.327-24.821c-1.202-10.521,2.284-20.72,4.506-30.854c3.014-13.881,6.82-27.669,8.106-41.846
	c1.492-7.358,2.406-14.805,3.014-22.273c10.184-1.127,20.198-3.622,30.462-4.103c10.521-0.389,21.067-0.285,31.596-0.237
	c5.763-0.055,11.34-1.809,17.073-2.163c6.729-0.498,13.333-1.945,20.053-2.479c-4.451,3.167-8.988,6.27-14.038,8.422
	c-11.627,5.127-22.977,12.509-29.579,23.665c-3.979,6.595-3.064,15.136,1.402,21.242c5.481,7.627,10.153,16.684,18.927,21.032
	c9.667,4.873,19.907,9.208,30.846,9.952c19.646,1.738,39.692,1.743,59.017-2.655c67.754-12.802,135.315-26.561,202.767-40.869
	c11.603-2.322,23.04-5.793,34.94-6.249c16.537-0.742,33.096-2.514,49.167-6.594c5.976-1.616,12.348-2.212,17.918-5.089
	c6.015-3.764,8.102-11.404,7.743-18.146c0.057-11.578-4.47-23.521-13.538-31.008c-5.905-4.676-12.498-8.402-18.916-12.318
	C470.562,66.283,477.401,63.792,484.515,62.308z"/>
<path fill="#488BB7" d="M428.991,72.705c11.611-0.73,23.014-2.979,34.435-5.031c6.418,3.916,13.011,7.643,18.916,12.318
	c9.068,7.487,13.595,19.43,13.538,31.008c0.358,6.742-1.729,14.383-7.743,18.146c-5.57,2.877-11.942,3.473-17.918,5.089
	c-16.071,4.08-32.63,5.852-49.167,6.594c-11.9,0.456-23.338,3.927-34.94,6.249c-67.451,14.309-135.012,28.067-202.767,40.869
	c-19.325,4.398-39.372,4.394-59.017,2.655c-10.939-0.744-21.179-5.079-30.846-9.952c-8.774-4.349-13.446-13.405-18.927-21.032
	c-4.466-6.106-5.381-14.647-1.402-21.242c6.603-11.156,17.952-18.538,29.579-23.665c5.05-2.152,9.587-5.255,14.038-8.422
	c4.413-2.449,9.744-1.739,14.569-2.731c11.33-2.084,22.007-6.706,32.464-11.429c8.947,5.28,19.576,2.814,29.324,2.222
	C271.864,88.327,350.496,81.232,428.991,72.705z"/>
<path fill="#FFFFFF" d="M174.538,84.063c1.192-0.15,2.04,0.381,2.567,1.571C175.381,86.518,174.521,85.996,174.538,84.063z"/>
</svg>
